<?xml version="1.0" encoding="UTF-8"?> <!-- Generator: Adobe Illustrator 24.2.1, SVG Export Plug-In . SVG Version: 6.00 Build 0) --> <svg xmlns="http://www.w3.org/2000/svg" xmlns:xlink="http://www.w3.org/1999/xlink" version="1.1" id="Layer_1" x="0px" y="0px" viewBox="0 0 120 135" style="enable-background:new 0 0 120 135;" xml:space="preserve"> <style type="text/css"> .st0{fill:#232F3E;} .st1{fill:#FFFFFF;} </style> <path class="st0" d="M52,4.6L9.6,29.2c-4.9,2.9-8,8.1-8,13.8v49c0,5.7,3,11,8,13.8L52,130.4c4.9,2.9,11,2.9,16,0l42.5-24.5 c4.9-2.9,8-8.1,8-13.8V43c0-5.7-3-11-8-13.8L68,4.6C63,1.8,57,1.8,52,4.6z"></path> <g> <path class="st1" d="M73,82.1c-0.4,0-0.8-0.1-1-0.4c-3.9-3.7-6-8.8-6-14.2c0-5.4,2.1-10.4,6-14.2c0.6-0.6,1.6-0.6,2.1,0 c0.6,0.6,0.6,1.6,0,2.1c-3.3,3.2-5.1,7.4-5.1,12s1.8,8.8,5.1,12c0.6,0.6,0.6,1.5,0,2.1C73.8,82,73.4,82.1,73,82.1z"></path> <path class="st1" d="M46.9,82.1c-0.4,0-0.8-0.2-1.1-0.5c-0.6-0.6-0.6-1.6,0-2.1c3.3-3.2,5.1-7.4,5.1-12s-1.8-8.8-5.1-12 c-0.6-0.6-0.6-1.5,0-2.1c0.6-0.6,1.5-0.6,2.1,0c3.9,3.7,6,8.8,6,14.2c0,5.4-2.1,10.4-6,14.2C47.7,82,47.3,82.1,46.9,82.1z"></path> <path class="st1" d="M73.1,82.1c-0.4,0-0.8-0.2-1.1-0.5c-3.2-3.3-7.4-5.1-12-5.1s-8.8,1.8-12,5.1c-0.6,0.6-1.5,0.6-2.1,0 c-0.6-0.6-0.6-1.5,0-2.1c3.7-3.9,8.8-6,14.2-6c5.4,0,10.4,2.1,14.2,6c0.6,0.6,0.6,1.6,0,2.1C73.8,82,73.4,82.1,73.1,82.1z"></path> <path class="st1" d="M60,61.6c-5.4,0-10.4-2.1-14.2-6c-0.6-0.6-0.6-1.6,0-2.1c0.6-0.6,1.6-0.6,2.1,0c3.2,3.3,7.4,5.1,12,5.1 s8.8-1.8,12-5.1c0.6-0.6,1.5-0.6,2.1,0c0.6,0.6,0.6,1.5,0,2.1C70.4,59.4,65.4,61.6,60,61.6z"></path> <rect x="34.7" y="66" class="st1" width="12.2" height="3"></rect> <path class="st1" d="M43.6,73.6l-2.1-2.1l3.9-3.9l-3.9-3.9l2.1-2.1l4.3,4.3c1,1,1,2.5,0,3.4L43.6,73.6z"></path> <rect x="67.7" y="66" class="st1" width="12.2" height="3"></rect> <path class="st1" d="M76.6,73.6l-2.1-2.1l3.9-3.9l-3.9-3.9l2.1-2.1l4.3,4.3c1,1,1,2.5,0,3.4L76.6,73.6z"></path> <path class="st1" d="M39.9,51.5c-3.7,0-6.7-3-6.7-6.7s3-6.7,6.7-6.7c3.7,0,6.7,3,6.7,6.7S43.6,51.5,39.9,51.5z M39.9,41 c-2.1,0-3.7,1.7-3.7,3.7s1.7,3.7,3.7,3.7s3.7-1.7,3.7-3.7S41.9,41,39.9,41z"></path> <path class="st1" d="M80.4,51.5c-3.7,0-6.7-3-6.7-6.7s3-6.7,6.7-6.7c3.7,0,6.7,3,6.7,6.7S84.1,51.5,80.4,51.5z M80.4,41 c-2.1,0-3.7,1.7-3.7,3.7s1.7,3.7,3.7,3.7c2.1,0,3.7-1.7,3.7-3.7S82.4,41,80.4,41z"></path> <path class="st1" d="M39.9,97.2c-3.7,0-6.7-3-6.7-6.7c0-3.7,3-6.7,6.7-6.7c3.7,0,6.7,3,6.7,6.7C46.6,94.1,43.6,97.2,39.9,97.2z M39.9,86.7c-2.1,0-3.7,1.7-3.7,3.7c0,2.1,1.7,3.7,3.7,3.7s3.7-1.7,3.7-3.7C43.6,88.4,41.9,86.7,39.9,86.7z"></path> <path class="st1" d="M80.4,97.2c-3.7,0-6.7-3-6.7-6.7c0-3.7,3-6.7,6.7-6.7c3.7,0,6.7,3,6.7,6.7C87.1,94.1,84.1,97.2,80.4,97.2z M80.4,86.7c-2.1,0-3.7,1.7-3.7,3.7c0,2.1,1.7,3.7,3.7,3.7c2.1,0,3.7-1.7,3.7-3.7C84.1,88.4,82.4,86.7,80.4,86.7z"></path> <path class="st1" d="M90.6,74.3c-3.7,0-6.7-3-6.7-6.7c0-3.7,3-6.7,6.7-6.7c3.7,0,6.7,3,6.7,6.7C97.4,71.3,94.3,74.3,90.6,74.3z M90.6,63.8c-2.1,0-3.7,1.7-3.7,3.7c0,2.1,1.7,3.7,3.7,3.7c2.1,0,3.7-1.7,3.7-3.7C94.4,65.5,92.7,63.8,90.6,63.8z"></path> <path class="st1" d="M29.5,74.3c-3.7,0-6.7-3-6.7-6.7c0-3.7,3-6.7,6.7-6.7s6.7,3,6.7,6.7C36.2,71.3,33.2,74.3,29.5,74.3z M29.5,63.8c-2.1,0-3.7,1.7-3.7,3.7c0,2.1,1.7,3.7,3.7,3.7s3.7-1.7,3.7-3.7C33.2,65.5,31.5,63.8,29.5,63.8z"></path> <g> <path class="st1" d="M87.8,51.4c-0.7,0.8-1.5,1.4-2.4,1.9c0.9,1.5,1.6,3.1,2.2,4.8c1-0.3,2-0.5,3-0.5 C89.8,55.4,88.9,53.3,87.8,51.4z"></path> <path class="st1" d="M87.5,77c-0.6,1.7-1.3,3.3-2.2,4.8c0.9,0.5,1.7,1.2,2.4,1.9c1.2-2,2.1-4.1,2.8-6.3 C89.5,77.5,88.5,77.3,87.5,77z"></path> <path class="st1" d="M48.9,40.7c3.4-1.4,7.2-2.2,11.1-2.2c4,0,7.8,0.8,11.2,2.3c0.4-0.9,1-1.8,1.6-2.6c-3.9-1.7-8.3-2.7-12.9-2.7 c-4.5,0-8.9,1-12.8,2.7C48,38.9,48.5,39.7,48.9,40.7z"></path> <path class="st1" d="M71.3,94.4c-3.5,1.5-7.2,2.3-11.2,2.3c-3.9,0-7.7-0.8-11.1-2.2c-0.4,0.9-1,1.8-1.7,2.6 c3.9,1.7,8.2,2.6,12.7,2.6c4.6,0,8.9-1,12.9-2.7C72.2,96.2,71.7,95.3,71.3,94.4z"></path> <path class="st1" d="M32.6,58.1c0.6-1.7,1.3-3.3,2.2-4.9c-0.9-0.5-1.7-1.2-2.3-2c-1.2,2-2.1,4.1-2.9,6.3 C30.6,57.6,31.6,57.8,32.6,58.1z"></path> <path class="st1" d="M34.8,81.9c-0.9-1.5-1.6-3.2-2.2-4.9c-1,0.3-2,0.5-3,0.5c0.7,2.2,1.7,4.4,2.9,6.4 C33.1,83.1,33.9,82.4,34.8,81.9z"></path> </g> </g> </svg> 